<svg width="200" height="200" viewBox="0 0 200 200" fill="none" xmlns="http://www.w3.org/2000/svg">
<g clip-path="url(#clip0_17_22)">
<rect width="200" height="200" rx="25" fill="url(#paint0_linear_17_22)"/>
<path d="M64.1313 125.408C62.9941 124.478 62.3496 121.056 61.9326 119.642C61.2882 117.447 60.8333 115.215 60.5301 112.946C59.9235 108.333 59.9615 103.645 60.6817 99.0697C62.1601 89.1741 67.2018 79.6878 74.8591 72.9171C83.6916 65.142 95.026 62.4636 106.588 61.6451C113.108 61.1987 119.628 61.3102 126.148 61.3102C137.786 61.3102 145.974 58.1482 151.736 53.9444C163.222 45.5741 162.161 33 162.161 33C158.37 37.1294 151.054 37.5014 145.822 37.6874C138.772 37.9478 131.683 37.2781 124.708 36.3481C121.713 35.9389 118.756 35.3437 115.799 34.7485C113.866 34.3765 111.933 34.0045 110 33.7441C91.0837 31.14 71.9403 35.7528 56.9289 47.4713C52.9107 50.5962 49.2716 54.1676 46.0494 58.0737C35.3216 100.967 64.0934 125.334 64.1313 125.334V125.408Z" fill="white"/>
<path d="M168.567 78.163C168.453 76.5262 168.301 74.9265 168.112 73.2897C168.112 73.2897 167.809 70.7228 167.619 70.0531C166.103 71.9876 164.435 73.5873 162.653 74.9265C158.142 78.3491 152.608 80.358 146.997 81.2508C143.396 81.8088 139.719 81.6972 136.08 81.846C133.237 81.9576 130.432 82.1808 127.627 82.5156C122.888 83.1109 118.225 84.1153 113.714 85.6405C109.962 86.9054 106.36 88.5422 103.024 90.6255C100.144 92.4112 97.4899 94.5317 95.1017 96.9498C92.9789 99.1075 91.1593 101.488 89.5672 104.055C88.1267 106.399 86.9516 108.854 86.0039 111.421C85.132 113.728 84.4876 116.109 83.9948 118.489C83.5778 120.573 83.2746 122.656 83.123 124.739C83.0093 126.376 82.9334 128.013 82.9713 129.65C82.9713 130.654 83.0472 131.659 83.123 132.626C83.123 132.849 83.1609 133.072 83.1988 133.296C110.682 139.136 150.371 100.856 150.371 100.856C112.084 157.737 72.3571 138.615 72.3571 138.615C30.2038 120.573 39.9082 67.0399 39.9461 66.8539C34.26 76.6378 31 87.9471 31 100C31 137.016 61.5535 167 99.2716 167C112.994 167 126.565 162.908 137.899 155.244C150.902 146.465 160.53 133.37 164.852 118.489C168.567 105.618 169.363 91.444 168.491 78.1259L168.567 78.163Z" fill="white"/>
</g>
<defs>
<linearGradient id="paint0_linear_17_22" x1="-14.5" y1="35" x2="105.5" y2="200" gradientUnits="userSpaceOnUse">
<stop stop-color="#00E1E9"/>
<stop offset="1" stop-color="#18A5EF"/>
</linearGradient>
<clipPath id="clip0_17_22">
<rect width="200" height="200" fill="white"/>
</clipPath>
</defs>
</svg>
