<svg width="36" height="36" viewBox="0 0 36 36" fill="none" xmlns="http://www.w3.org/2000/svg">
<path id="Vector" d="M23.3145 15.8448C23.3145 17.2904 22.1394 18.468 20.697 18.468H15.7505V13.2217H20.697C22.1394 13.2217 23.3145 14.3993 23.3145 15.8448ZM35.8179 18.468C35.8179 28.1284 28.0077 35.9555 18.368 35.9555C8.72824 35.9555 0.917969 28.1284 0.917969 18.468C0.917969 8.80754 8.72824 0.980469 18.368 0.980469C28.0077 0.980469 35.8179 8.80754 35.8179 18.468ZM26.8045 15.8448C26.8045 12.4672 24.0673 9.72422 20.697 9.72422H12.2605V27.2117H15.7505V21.9655H20.697C24.0673 21.9655 26.8045 19.2225 26.8045 15.8448Z" fill="#1E90EC"/>
</svg>
