<svg width="35" height="28" viewBox="0 0 35 28" fill="none" xmlns="http://www.w3.org/2000/svg">
<g id="fa-solid:truck">
<path id="Vector" d="M34.125 19.25H33.25V13.3383C33.25 12.6437 32.9711 11.9766 32.4789 11.4844L27.0156 6.02109C26.5234 5.52891 25.8563 5.25 25.1617 5.25H22.75V2.625C22.75 1.17578 21.5742 0 20.125 0H2.625C1.17578 0 0 1.17578 0 2.625V20.125C0 21.5742 1.17578 22.75 2.625 22.75H3.5C3.5 25.6484 5.85156 28 8.75 28C11.6484 28 14 25.6484 14 22.75H21C21 25.6484 23.3516 28 26.25 28C29.1484 28 31.5 25.6484 31.5 22.75H34.125C34.6063 22.75 35 22.3563 35 21.875V20.125C35 19.6437 34.6063 19.25 34.125 19.25ZM8.75 25.375C7.30078 25.375 6.125 24.1992 6.125 22.75C6.125 21.3008 7.30078 20.125 8.75 20.125C10.1992 20.125 11.375 21.3008 11.375 22.75C11.375 24.1992 10.1992 25.375 8.75 25.375ZM26.25 25.375C24.8008 25.375 23.625 24.1992 23.625 22.75C23.625 21.3008 24.8008 20.125 26.25 20.125C27.6992 20.125 28.875 21.3008 28.875 22.75C28.875 24.1992 27.6992 25.375 26.25 25.375ZM30.625 14H22.75V7.875H25.1617L30.625 13.3383V14Z" fill="#1E90EC"/>
</g>
</svg>
